HIERARCHY
ROOT Hips
{
	OFFSET 0.000000 0.000000 0.000000
	CHANNELS 6 Xposition Yposition Zposition Xrotation Yrotation Zrotation
	JOINT LeftUpLeg_virtual
	{
		OFFSET 0.000000 0.000000 0.000000
		CHANNELS 3 Xrotation Yrotation Zrotation
		JOINT LeftUpLeg
		{
			OFFSET 11.394100 -6.187798 -0.413800
			CHANNELS 3 Xrotation Yrotation Zrotation
			JOINT LeftLeg
			{
				OFFSET 0.430247 -32.302673 3.732800
				CHANNELS 3 Xrotation Yrotation Zrotation
				JOINT LeftFoot
				{
					OFFSET -0.430247 -48.264931 -6.423300
					CHANNELS 3 Xrotation Yrotation Zrotation
					JOINT LeftToeBase
					{
						OFFSET 4.230900 -16.068199 23.438400
						CHANNELS 3 Xrotation Yrotation Zrotation
						JOINT LeftToe_End
						{
							OFFSET 4.510700 0.695400 19.974600
							CHANNELS 3 Xrotation Yrotation Zrotation
							End Site
							{
								OFFSET 0 0 0
							}
						}
					}
				}
			}
		}
	}
	JOINT RightUpLeg_virtual
	{
		OFFSET 0.000000 0.000000 0.000000
		CHANNELS 3 Xrotation Yrotation Zrotation
		JOINT RightUpLeg
		{
			OFFSET -11.333700 -6.187798 -0.413800
			CHANNELS 3 Xrotation Yrotation Zrotation
			JOINT RightLeg
			{
				OFFSET -0.430392 -32.302628 3.733000
				CHANNELS 3 Xrotation Yrotation Zrotation
				JOINT RightFoot
				{
					OFFSET 0.430392 -48.264973 -6.423500
					CHANNELS 3 Xrotation Yrotation Zrotation
					JOINT RightToeBase
					{
						OFFSET -4.230900 -16.068199 23.438400
						CHANNELS 3 Xrotation Yrotation Zrotation
						JOINT RightToe_End
						{
							OFFSET -4.510700 0.695400 19.974600
							CHANNELS 3 Xrotation Yrotation Zrotation
							End Site
							{
								OFFSET 0 0 0
							}
						}
					}
				}
			}
		}
	}
	JOINT Spine_virtual
	{
		OFFSET 0.000000 0.000000 0.000000
		CHANNELS 3 Xrotation Yrotation Zrotation
		JOINT Spine
		{
			OFFSET -0.002400 12.777504 0.315300
			CHANNELS 3 Xrotation Yrotation Zrotation
			JOINT Spine1
			{
				OFFSET -0.002067 5.816869 0.032633
				CHANNELS 3 Xrotation Yrotation Zrotation
				JOINT Spine1_split
				{
					OFFSET -0.002067 5.816869 0.032633
					CHANNELS 3 Xrotation Yrotation Zrotation
					JOINT Spine2
					{
						OFFSET -0.002067 5.816869 0.032633
						CHANNELS 3 Xrotation Yrotation Zrotation
						JOINT Neck_virtual
						{
							OFFSET 0.000000 0.000000 0.000000
							CHANNELS 3 Xrotation Yrotation Zrotation
							JOINT Neck
							{
								OFFSET -0.003700 21.199493 -0.826900
								CHANNELS 3 Xrotation Yrotation Zrotation
								JOINT Head
								{
									OFFSET 0.000000 20.442200 4.834800
									CHANNELS 3 Xrotation Yrotation Zrotation
									JOINT HeadTop_End
									{
										OFFSET 0.000000 34.668396 4.968400
										CHANNELS 3 Xrotation Yrotation Zrotation
										End Site
										{
											OFFSET 0 0 0
										}
									}
								}
							}
						}
						JOINT LeftShoulder_virtual
						{
							OFFSET 0.000000 0.000000 0.000000
							CHANNELS 3 Xrotation Yrotation Zrotation
							JOINT LeftShoulder
							{
								OFFSET 3.288150 8.794197 -1.372250
								CHANNELS 3 Xrotation Yrotation Zrotation
								JOINT LeftShoulder_split
								{
									OFFSET 3.288150 8.794197 -1.372250
									CHANNELS 3 Xrotation Yrotation Zrotation
									JOINT LeftArm
									{
										OFFSET 11.953299 -2.279007 -0.146200
										CHANNELS 3 Xrotation Yrotation Zrotation
										JOINT LeftForeArm
										{
											OFFSET 18.448900 0.000000 0.000000
											CHANNELS 3 Xrotation Yrotation Zrotation
											JOINT LeftHand
											{
												OFFSET 29.527798 0.000000 0.000000
												CHANNELS 3 Xrotation Yrotation Zrotation
												End Site
												{
													OFFSET 0 0 0
												}
											}
										}
									}
								}
							}
						}
						JOINT RightShoulder_virtual
						{
							OFFSET 0.000000 0.000000 0.000000
							CHANNELS 3 Xrotation Yrotation Zrotation
							JOINT RightShoulder
							{
								OFFSET -3.249400 8.794197 -1.372250
								CHANNELS 3 Xrotation Yrotation Zrotation
								JOINT RightShoulder_split
								{
									OFFSET -3.249400 8.794197 -1.372250
									CHANNELS 3 Xrotation Yrotation Zrotation
									JOINT RightArm
									{
										OFFSET -11.953299 -2.279007 -0.146200
										CHANNELS 3 Xrotation Yrotation Zrotation
										JOINT RightForeArm
										{
											OFFSET -18.448900 0.000000 0.000000
											CHANNELS 3 Xrotation Yrotation Zrotation
											JOINT RightHand
											{
												OFFSET -29.527802 0.000000 0.000000
												CHANNELS 3 Xrotation Yrotation Zrotation
												End Site
												{
													OFFSET 0 0 0
												}
											}
										}
									}
								}
							}
						}
					}
				}
			}
		}
	}
}
MOTION
Frames: 5
Frame Time: 0.03333333
-0.695410 100.546364 1.550842 0.000000 0.000000 0.000000 -0.626005 7.644660 -2.799211 -6.239759 10.487603 14.403119 11.212354 -4.446459 -0.908353 -6.326778 0.683228 -6.581780 2.390753 0.103987 -3.315474 0.000000 0.000000 0.000000 -0.555507 8.044331 -2.807237 -7.546428 -3.720591 -0.477573 9.538570 4.024876 -0.142035 2.239370 0.084667 -0.308638 -2.636507 -0.085756 0.734867 0.000000 0.000000 0.000000 -0.212874 10.502787 -3.122486 9.241923 -0.397825 1.853121 3.141411 0.175573 -0.496027 0.303903 -2.114280 1.123901 0.000000 0.000000 0.000000 -4.308148 -0.032420 0.093978 -0.016770 0.202610 0.525390 6.099662 -4.238699 -1.089102 0.000000 0.000000 0.000000 -4.646184 -0.467925 0.205618 0.543461 -3.791582 -8.310946 -0.569839 -1.805599 0.730486 4.544315 1.417632 -71.944910 3.377355 -11.730009 1.263271 0.000000 0.000000 0.000000 -5.414898 -0.791433 0.184986 0.735652 8.370720 5.897784 -3.025981 -1.003724 -0.472245 3.519174 12.804124 76.760336 16.832602 19.381217 -4.928618 0.000000 0.000000 0.000000 
-0.348576 100.545013 1.356567 0.000000 0.000000 0.000000 -0.537149 7.601510 -2.733446 -6.017911 10.352014 14.161427 11.244056 -4.308468 -0.923226 -6.598792 0.758812 -6.602442 2.396150 0.074835 -3.191475 0.000000 0.000000 0.000000 -0.353704 8.019607 -2.818021 -7.823545 -4.098382 -0.699125 9.836033 4.069658 -0.170152 1.904267 0.195413 -0.749792 -1.679201 -0.064066 0.563768 0.000000 0.000000 0.000000 -0.078597 10.037989 -3.097840 9.144761 -0.360536 1.854451 3.107487 0.201191 -0.509811 0.288561 -2.227586 0.955494 0.000000 0.000000 0.000000 -4.208319 -0.003342 0.085742 0.025397 0.283665 0.519912 6.115404 -4.398777 -0.920698 0.000000 0.000000 0.000000 -4.646959 -0.448231 0.153894 0.583928 -3.737259 -8.223282 -0.650515 -1.672881 0.751047 4.437569 1.293280 -71.963809 3.343097 -11.822787 1.243193 0.000000 0.000000 0.000000 -5.441987 -0.759105 0.207531 0.713737 8.036329 5.741181 -3.058173 -0.949682 -0.491787 3.445266 13.197802 76.645938 16.893305 19.829374 -5.109147 0.000000 0.000000 0.000000 
0.129968 100.404846 1.437130 0.000000 0.000000 0.000000 -0.551155 7.649505 -2.670722 -5.830376 10.119741 13.866617 11.473663 -4.145384 -1.021872 -7.041907 0.806816 -6.622104 2.404658 0.044438 -2.994089 0.000000 0.000000 0.000000 -0.194276 7.982099 -2.860138 -7.771704 -4.263387 -1.080648 10.115430 4.257201 -0.256976 1.129024 0.512933 -1.025485 -1.329274 -0.031006 0.175504 0.000000 0.000000 0.000000 -0.043608 9.603519 -2.985278 8.976641 -0.257940 1.834075 3.114083 0.266405 -0.533402 0.304347 -2.225349 0.827643 0.000000 0.000000 0.000000 -4.073991 0.050586 0.077217 -0.059305 0.409302 0.386120 5.995468 -4.538946 -0.677989 0.000000 0.000000 0.000000 -4.590852 -0.404569 0.098413 0.635755 -3.688116 -8.009019 -0.779988 -1.697934 0.774397 4.312393 1.018919 -71.926215 3.396427 -11.899041 1.178986 0.000000 0.000000 0.000000 -5.376812 -0.694976 0.213659 0.722775 7.724036 5.516487 -3.012785 -1.070730 -0.502001 3.456961 13.731899 76.480476 17.024136 20.573049 -5.697283 0.000000 0.000000 0.000000 
0.668579 100.167145 1.793182 0.000000 0.000000 0.000000 -0.653812 7.743563 -2.610621 -5.674729 9.836539 13.544438 11.774683 -3.900621 -1.186946 -7.514046 0.828275 -6.616150 2.350407 0.019353 -2.760909 0.000000 0.000000 0.000000 -0.090429 7.918518 -2.874823 -7.329628 -4.276319 -1.628361 10.351032 4.527277 -0.313599 0.146730 0.990484 -1.120909 -1.483927 0.020530 -0.273142 0.000000 0.000000 0.000000 -0.136571 9.285683 -2.826500 8.765326 -0.132707 1.803643 3.159358 0.347091 -0.540270 0.329766 -2.130416 0.784431 0.000000 0.000000 0.000000 -3.940772 0.102367 0.093797 -0.221562 0.554359 0.147059 5.774033 -4.680612 -0.366731 0.000000 0.000000 0.000000 -4.481021 -0.352229 0.062766 0.697982 -3.634488 -7.727889 -0.968808 -1.763496 0.809379 4.218661 0.612716 -71.929159 3.534291 -11.914223 1.077422 0.000000 0.000000 0.000000 -5.221867 -0.619927 0.220043 0.761776 7.467441 5.259145 -2.954814 -1.280853 -0.551101 3.523266 14.210913 76.328272 17.163825 21.408705 -6.590721 0.000000 0.000000 0.000000 
1.252231 99.926498 2.357441 0.000000 0.000000 0.000000 -0.807904 7.782339 -2.538299 -5.463709 9.447361 13.187670 12.066526 -3.505665 -1.375491 -8.009256 0.880155 -6.469326 2.199665 0.013388 -2.499847 0.000000 0.000000 0.000000 -0.105176 7.746755 -2.854271 -6.478247 -4.258462 -2.287868 10.250710 4.819934 -0.288896 -0.819757 1.539188 -0.926906 -1.837054 0.052571 -0.637276 0.000000 0.000000 0.000000 -0.289190 9.131722 -2.693386 8.538898 -0.009079 1.779176 3.229180 0.416526 -0.505233 0.375491 -1.954030 0.776809 0.000000 0.000000 0.000000 -3.831492 0.133567 0.151603 -0.406401 0.711365 -0.121351 5.511909 -4.823518 -0.019171 0.000000 0.000000 0.000000 -4.336850 -0.303906 0.070243 0.761178 -3.576541 -7.457274 -1.165082 -1.881017 0.833926 4.157637 0.118415 -72.036311 3.743103 -11.877914 0.958854 0.000000 0.000000 0.000000 -5.007656 -0.556017 0.245864 0.834500 7.306438 5.021049 -2.852424 -1.398372 -0.586099 3.526707 14.526928 76.256077 17.206375 22.134686 -7.638335 0.000000 0.000000 0.000000 
